<?xml version="1.0" standalone="no"?>
<!DOCTYPE svg PUBLIC "-//W3C//DTD SVG 20010904//EN" "http://www.w3.org/TR/2001/REC-SVG-20010904/DTD/svg10.dtd">
<!-- Created using Krita: https://krita.org -->
<svg xmlns="http://www.w3.org/2000/svg" 
    xmlns:xlink="http://www.w3.org/1999/xlink"
    xmlns:krita="http://krita.org/namespaces/svg/krita"
    xmlns:sodipodi="http://sodipodi.sourceforge.net/DTD/sodipodi-0.dtd"
    width="120pt"
    height="120pt"
    viewBox="0 0 120 120">
<defs/>
<path id="shape0" fill="none" stroke="#000000" stroke-width="4.8" stroke-linecap="square" stroke-linejoin="bevel" d="M38.1072 38.5956L37.7668 38.5492L37.2876 38.4959L36.8047 38.4542L36.3184 38.4242L35.8289 38.4061L35.3362 38.4L34.8435 38.4061L34.3539 38.4242L33.8676 38.4542L33.3848 38.4959L32.9055 38.5492L32.43 38.614L31.9584 38.69L31.4908 38.7772L31.0275 38.8754L30.5685 38.9844L30.114 39.1042L29.6642 39.2345L29.2192 39.3752L28.7792 39.5261L28.3444 39.6872L27.9148 39.8582L27.4907 40.039L27.0721 40.2295L26.6594 40.4296L26.2525 40.6389L25.8517 40.8575L25.4572 41.0852L25.069 41.3218L24.6873 41.5671L24.3123 41.8211L23.9442 42.0836L23.5831 42.3544L23.2291 42.6334L22.8824 42.9204L22.5431 43.2153L22.2115 43.5179L21.8876 43.8281L21.5717 44.1458L21.2638 44.4707L20.9642 44.8028L20.673 45.1419L20.3903 45.4879L20.1162 45.8405L19.8511 46.1997L19.5949 46.5653L19.3479 46.9371L19.1103 47.3151L18.8821 47.699L18.6635 48.0887L18.6212 48.1687L18.361 48.1284L18.0638 48.0895L17.7643 48.0575L17.4625 48.0325L17.1586 48.0145L16.8526 48.0036L16.5447 48L16.2367 48.0036L15.9308 48.0145L15.6268 48.0325L15.3251 48.0575L15.0255 48.0895L14.7283 48.1284L14.4336 48.174L14.1413 48.2263L13.8517 48.2852L13.5649 48.3507L13.2808 48.4225L12.9997 48.5007L12.7216 48.5851L12.4466 48.6757L12.1748 48.7723L11.9063 48.8749L11.6412 48.9834L11.3797 49.0977L11.1217 49.2177L10.8674 49.3434L10.6169 49.4745L10.3703 49.6111L10.1277 49.7531L9.88915 49.9003L9.65479 50.0527L9.4247 50.2102L9.19898 50.3726L8.97773 50.54L8.76105 50.7122L8.54902 50.8892L8.34176 51.0707L8.13934 51.2569L7.94188 51.4475L7.74947 51.6424L7.5622 51.8417L7.38017 52.0452L7.20349 52.2527L7.03223 52.4643L6.86651 52.6798L6.70641 52.8992L6.55204 53.1223L6.40349 53.349L6.26086 53.5794L6.12425 53.8132L5.99374 54.0504L5.86945 54.291L5.75146 54.5347L5.63987 54.7816L5.53478 55.0315L5.43628 55.2844L5.34448 55.5401L5.25946 55.7987L5.18133 56.0599L5.11019 56.3237L5.04612 56.59L4.98922 56.8587L4.9396 57.1297L4.89735 57.403L4.86256 57.6785L4.83534 57.956L4.81577 58.2355L4.80396 58.5168L4.8 58.8L4.80396 59.0832L4.81577 59.3645L4.83534 59.644L4.86256 59.9215L4.89735 60.197L4.9396 60.4703L4.98922 60.7413L5.04612 61.01L5.11019 61.2763L5.18133 61.5401L5.25946 61.8013L5.34448 62.0599L5.43628 62.3156L5.53478 62.5685L5.63987 62.8184L5.75146 63.0653L5.86945 63.309L5.99374 63.5496L6.12425 63.7868L6.26086 64.0206L6.40349 64.251L6.55204 64.4777L6.70641 64.7008L6.86651 64.9202L7.03223 65.1357L7.20349 65.3473L7.38017 65.5548L7.5622 65.7583L7.74947 65.9576L7.94188 66.1525L8.13934 66.3431L8.34176 66.5293L8.54902 66.7108L8.76105 66.8878L8.97773 67.06L9.19898 67.2274L9.4247 67.3898L9.65479 67.5473L9.88915 67.6997L10.1277 67.8469L10.3703 67.9889L10.6169 68.1255L10.8674 68.2566L11.1217 68.3823L11.3797 68.5023L11.6412 68.6166L11.9063 68.7251L12.1748 68.8277L12.4466 68.9243L12.7216 69.0149L12.9997 69.0993L13.2808 69.1775L13.5649 69.2493L13.8517 69.3148L14.1413 69.3737L14.4336 69.426L14.7283 69.4716L15.0255 69.5105L15.3251 69.5425L15.6268 69.5675L15.9308 69.5855L16.2367 69.5964L16.5447 69.6L16.8526 69.5964L17.1006 69.5876L17.1173 69.6556L17.1999 69.9515L17.2916 70.2446L17.3923 70.5348L17.5019 70.8221L17.6202 71.1062L17.7472 71.3872L17.8827 71.6649L18.0266 71.9392L18.1787 72.21L18.3389 72.4773L18.5071 72.7409L18.6832 73.0007L18.8671 73.2566L19.0586 73.5086L19.2576 73.7565L19.464 74.0002L19.6776 74.2397L19.8984 74.4748L20.1262 74.7054L20.3608 74.9314L20.6023 75.1528L20.8503 75.3695L21.1049 75.5812L21.3658 75.7881L21.633 75.9898L21.9063 76.1864L22.1856 76.3778L22.4709 76.5637L22.7618 76.7443L23.0585 76.9192L23.3606 77.0886L23.6681 77.2521L23.9809 77.4099L24.2988 77.5616L24.6217 77.7074L24.9495 77.847L25.282 77.9803L25.6193 78.1073L25.961 78.2279L26.3071 78.3419L26.6574 78.4492L27.0119 78.5499L27.3705 78.6437L27.7329 78.7305L28.0991 78.8104L28.4689 78.8831L28.8422 78.9485L29.2189 79.0067L29.5989 79.0574L29.982 79.1005L30.3682 79.1361L30.7572 79.1639L31.149 79.1839L31.5435 79.196L31.9404 79.2L32.3374 79.196L32.7318 79.1839L33.1236 79.1639L33.5127 79.1361L33.8988 79.1005L34.2819 79.0574L34.6619 79.0067L35.0387 78.9485L35.412 78.8831L35.7818 78.8104L36.148 78.7305L36.5104 78.6437L36.8689 78.5499L37.2234 78.4492L37.5738 78.3419L37.9199 78.2279L38.2616 78.1073L38.5988 77.9803L38.9314 77.847L39.2592 77.7074L39.335 77.6731L39.4486 77.8621L39.7008 78.2508L39.9686 78.6349L40.2518 79.014L40.5501 79.3882L40.8633 79.7572L41.1912 80.121L41.5335 80.4793L41.89 80.832L42.2605 81.1791L42.6447 81.5203L43.0425 81.8555L43.4535 82.1847L43.8775 82.5075L44.3144 82.824L44.7638 83.134L45.2256 83.4373L45.6995 83.7337L46.1853 84.0233L46.6828 84.3057L47.1916 84.581L47.7117 84.8489L48.2427 85.1092L48.7844 85.362L49.3366 85.6069L49.8991 85.844L50.4716 86.073L51.0539 86.2938L51.6457 86.5063L52.2469 86.7103L52.8572 86.9058L53.4763 87.0924L54.1041 87.2702L54.7403 87.439L55.3846 87.5986L56.0369 87.7489L56.6969 87.8898L57.3644 88.0212L58.0391 88.1428L58.7208 88.2545L59.4093 88.3563L60.1043 88.4479L60.8056 88.5293L61.5131 88.6003L62.2264 88.6608L62.9452 88.7105L63.6695 88.7495L64.399 88.7774L65.1333 88.7943L65.8723 88.8L66.6114 88.7943L67.3457 88.7774L68.0752 88.7495L68.7994 88.7105L69.5183 88.6608L70.2316 88.6003L70.939 88.5293L71.6404 88.4479L72.3354 88.3563L73.0239 88.2545L73.7056 88.1428L74.3803 88.0212L75.0478 87.8898L75.7078 87.7489L76.3601 87.5986L77.0044 87.439L77.6406 87.2702L78.2684 87.0924L78.8875 86.9058L79.4978 86.7103L80.099 86.5063L80.6908 86.2938L81.2731 86.073L81.8456 85.844L82.4081 85.6069L82.9603 85.362L83.502 85.1092L84.033 84.8489L84.5531 84.581L85.0619 84.3057L85.5594 84.0233L86.0451 83.7337L86.5191 83.4373L86.9808 83.134L87.4303 82.824L87.8672 82.5075L88.2912 82.1847L88.7022 81.8555L89.1 81.5203L89.4842 81.1791L89.8547 80.832L90.2112 80.4793L90.3778 80.3049L90.3825 80.3092L90.6759 80.562L90.9751 80.8069L91.2797 81.044L91.5898 81.273L91.9052 81.4938L92.2258 81.7063L92.5515 81.9103L92.882 82.1058L93.2174 82.2924L93.5574 82.4702L93.902 82.639L94.2511 82.7986L94.6044 82.9489L94.9619 83.0898L95.3234 83.2212L95.6889 83.3428L96.0582 83.4545L96.4311 83.5563L96.8076 83.6479L97.1875 83.7293L97.5706 83.8003L97.957 83.8608L98.3464 83.9105L98.7387 83.9495L99.1338 83.9774L99.5316 83.9943L99.9319 84L100.332 83.9943L100.73 83.9774L101.125 83.9495L101.517 83.9105L101.907 83.8608L102.293 83.8003L102.676 83.7293L103.056 83.6479L103.433 83.5563L103.806 83.4545L104.175 83.3428L104.54 83.2212L104.902 83.0898L105.259 82.9489L105.613 82.7986L105.962 82.639L106.306 82.4702L106.646 82.2924L106.982 82.1058L107.312 81.9103L107.638 81.7063L107.959 81.4938L108.274 81.273L108.584 81.044L108.889 80.8069L109.188 80.562L109.481 80.3092L109.769 80.0489L110.051 79.781L110.326 79.5057L110.596 79.2233L110.859 78.9337L111.116 78.6373L111.366 78.334L111.609 78.024L111.846 77.7075L112.075 77.3847L112.298 77.0555L112.514 76.7203L112.722 76.3791L112.922 76.032L113.115 75.6793L113.301 75.321L113.478 74.9572L113.648 74.5882L113.81 74.214L113.963 73.8349L114.108 73.4508L114.245 73.0621L114.373 72.6687L114.492 72.2709L114.603 71.8687L114.704 71.4624L114.797 71.0521L114.88 70.6378L114.954 70.2198L115.019 69.7982L115.073 69.3731L115.119 68.9446L115.154 68.5129L115.18 68.0782L115.195 67.6405L115.2 67.2L115.195 66.7595L115.18 66.3218L115.154 65.8871L115.119 65.4554L115.073 65.0269L115.019 64.6018L114.954 64.1802L114.88 63.7622L114.797 63.3479L114.704 62.9376L114.603 62.5313L114.492 62.1291L114.373 61.7313L114.245 61.3379L114.108 60.9492L113.963 60.5651L113.81 60.186L113.648 59.8118L113.478 59.4428L113.301 59.079L113.115 58.7207L112.922 58.368L112.722 58.0209L112.514 57.6797L112.298 57.3445L112.075 57.0153L111.846 56.6925L111.609 56.376L111.366 56.066L111.116 55.7627L110.859 55.4663L110.596 55.1767L110.326 54.8943L110.051 54.619L109.769 54.3511L109.481 54.0908L109.188 53.838L108.889 53.5931L108.584 53.356L108.274 53.127L107.959 52.9062L107.638 52.6937L107.45 52.5758L107.493 52.4024L107.598 51.929L107.691 51.4512L107.772 50.9694L107.841 50.4835L107.898 49.9938L107.942 49.5005L107.974 49.0036L107.994 48.5034L108 48L107.994 47.4966L107.974 46.9964L107.942 46.4995L107.898 46.0062L107.841 45.5165L107.772 45.0306L107.691 44.5488L107.598 44.071L107.493 43.5976L107.377 43.1286L107.249 42.6643L107.11 42.2047L106.96 41.7501L106.799 41.3005L106.627 40.8562L106.445 40.4173L106.252 39.9839L106.048 39.5563L105.835 39.1346L105.612 38.7189L105.379 38.3094L105.136 37.9062L104.883 37.5096L104.622 37.1197L104.351 36.7365L104.071 36.3604L103.782 35.9914L103.484 35.6297L103.178 35.2755L102.864 34.9288L102.541 34.59L102.21 34.2591L101.871 33.9363L101.525 33.6217L101.17 33.3156L100.809 33.018L100.44 32.7292L100.063 32.4492L99.6803 32.1783L99.2904 31.9166L98.8938 31.6642L98.4906 31.4214L98.0811 31.1882L97.6654 30.9649L97.2437 30.7515L96.8161 30.5483L96.3827 30.3554L95.9438 30.173L95.4995 30.0012L95.0499 29.8402L94.5953 29.6901L94.1357 29.5511L93.6714 29.4234L93.2024 29.3071L92.729 29.2023L92.2512 29.1093L91.7694 29.0282L91.2835 28.9591L90.7938 28.9023L90.3005 28.8578L89.8036 28.8258L89.3034 28.8065L88.8 28.8L88.2966 28.8065L87.7964 28.8258L87.2995 28.8578L86.8062 28.9023L86.3165 28.9591L85.8306 29.0282L85.3488 29.1093L84.871 29.2023L84.3976 29.3071L83.9286 29.4234L83.4643 29.5511L83.0047 29.6901L82.5501 29.8402L82.1005 30.0012L81.6562 30.173L81.2173 30.3554L80.7839 30.5483L80.3563 30.7515L79.9346 30.9649L79.6938 31.0942L79.6278 30.842L79.5185 30.4647L79.3994 30.0913L79.2709 29.7219L79.133 29.3567L78.9859 28.9957L78.8297 28.639L78.6645 28.287L78.4905 27.9395L78.3078 27.5969L78.1165 27.2591L77.9168 26.9264L77.7088 26.5988L77.4927 26.2766L77.2686 25.9597L77.0366 25.6484L76.7968 25.3428L76.5495 25.043L76.2946 24.7491L76.0324 24.4613L75.7631 24.1797L75.4866 23.9044L75.2032 23.6355L74.9131 23.3732L74.6162 23.1177L74.3129 22.8689L74.0031 22.6271L73.6871 22.3925L73.365 22.165L73.0369 21.9449L72.7029 21.7322L72.3633 21.5272L72.018 21.3299L71.6673 21.1404L71.3113 20.9589L70.9502 20.7856L70.584 20.6205L70.2129 20.4638L69.837 20.3156L69.4565 20.176L69.0715 20.0451L68.6821 19.9232L68.2886 19.8103L67.8909 19.7065L67.4893 19.612L67.0838 19.5269L66.6747 19.4513L66.2621 19.3854L65.846 19.3293L65.4266 19.2831L65.0041 19.2469L64.5786 19.2209L64.1503 19.2053L63.7191 19.2L63.288 19.2053L62.8597 19.2209L62.4342 19.2469L62.0117 19.2831L61.5923 19.3293L61.1762 19.3854L60.7636 19.4513L60.3545 19.5269L59.949 19.612L59.5474 19.7065L59.1497 19.8103L58.7562 19.9232L58.3668 20.0451L57.9818 20.176L57.6013 20.3156L57.2254 20.4638L56.8543 20.6205L56.4881 20.7856L56.127 20.9589L55.771 21.1404L55.4203 21.3299L55.075 21.5272L54.7354 21.7322L54.4014 21.9449L54.0733 22.165L53.7512 22.3925L53.4352 22.6271L53.1254 22.8689L52.8221 23.1177L52.5252 23.3732L52.2351 23.6355L51.9517 23.9044L51.6752 24.1797L51.4059 24.4613L51.1437 24.7491L50.8888 25.043L50.6415 25.3428L50.4017 25.6484L50.1697 25.9597L49.9456 26.2766L49.7295 26.5988L49.5215 26.9264L49.3218 27.2591L49.1305 27.5969L48.9478 27.9395L48.7738 28.287L48.6086 28.639L48.4524 28.9957L48.3053 29.3567L48.1674 29.7219L48.0389 30.0913L47.9198 30.4647L47.8105 30.842L47.7109 31.2231L47.6342 31.5519L47.1282 31.7852L46.5319 32.0767L45.9449 32.3803L45.3673 32.6957L44.7995 33.0229L44.2416 33.3615L43.6939 33.7115L43.1566 34.0725L42.6299 34.4445L42.1141 34.8272L41.6094 35.2204L41.116 35.6239L40.6342 36.0375L40.1642 36.461L39.7061 36.8943L39.2603 37.3371L38.827 37.7892L38.4064 38.2505L38.1072 38.5956" sodipodi:nodetypes="cccccccccccccccccccccccccccccccccccccccccccccccccccccccccccccccccccccccccccccccccccccccccccccccccccccccccccccccccccccccccccccccccccccccccccccccccccccccccccccccccccccccccccccccccccccccccccccccccccccccccccccccccccccccccccccccccccccccccccccccccccccccccccccccccccccccccccccccccccccccccccccccccccccccccccccccccccccccccccccccccccccccccccccccccccccccccccccccccccccccccccccccccccccccccccccccccccccccccccccccccccccccccccccccccccccccccccccccccccccccccccccccccccccccccccccccccccccccccccccccccccccccccccccccccccccccccccccccccccccccccccccccccccccccccccccccccccccccccccccccccccccccccccccccccccccccccccccccccccccccccccccccccccccccccccccccccccccccccccccccccccccccccccccccccccccccccccccccccccccccccccccccccccccccccccccccccccccccc"/>
</svg>
