<?xml version="1.0" standalone="no"?>
<!DOCTYPE svg PUBLIC "-//W3C//DTD SVG 20010904//EN" "http://www.w3.org/TR/2001/REC-SVG-20010904/DTD/svg10.dtd">
<!-- Created using Krita: https://krita.org -->
<svg xmlns="http://www.w3.org/2000/svg" 
    xmlns:xlink="http://www.w3.org/1999/xlink"
    xmlns:krita="http://krita.org/namespaces/svg/krita"
    xmlns:sodipodi="http://sodipodi.sourceforge.net/DTD/sodipodi-0.dtd"
    width="120pt"
    height="120pt"
    viewBox="0 0 120 120">
<defs/>
<path id="shape0" transform="translate(-9.23076923076921, 2.53846153846151)" fill="#808080" fill-rule="evenodd" stroke="#000000" stroke-width="1.8" stroke-linecap="square" stroke-linejoin="bevel" d="M27.6923 10.6154L110.769 10.6154L110.769 74.3077L27.6923 74.3077L27.6923 10.6154M24.2308 7.96154L114.231 7.96154L114.231 76.9615L24.2308 76.9615L24.2308 7.96154" sodipodi:nodetypes="cccccccccc"/><path id="shape1" transform="translate(4.8, 79.2)" fill="none" stroke="#000000" stroke-width="1.8" stroke-linecap="square" stroke-linejoin="bevel" d="M9.6 0L0 21.6L110.4 21.6L100.8 0Z" sodipodi:nodetypes="ccccc"/><path id="shape0" transform="matrix(0.999999990802418 0 0 0.999999990802418 28.8000019296068 23.999999779258)" fill="none" stroke="#1a1a1a" stroke-width="1.8" stroke-linecap="square" stroke-linejoin="bevel" d="M14.4 0L0 19.2L14.4 38.4" sodipodi:nodetypes="ccc"/><path id="shape01" transform="matrix(-0.999677509706668 -0.0253927593995298 0.0253927593995298 -0.999677509706668 85.910138318004 62.5766350234777)" fill="none" stroke="#1a1a1a" stroke-width="1.8" stroke-linecap="square" stroke-linejoin="bevel" d="M14.4 0L0 19.2L14.4 38.4" sodipodi:nodetypes="ccc"/><path id="shape1" transform="matrix(0.999999990802418 0 0 0.999999990802418 52.8000017088648 23.999999779258)" fill="none" stroke="#1a1a1a" stroke-width="1.8" stroke-linecap="square" stroke-linejoin="miter" stroke-miterlimit="2" d="M14.4 0L0 38.4" sodipodi:nodetypes="cc"/>
</svg>
